<svg width="470" height="197" viewBox="0 0 470 197" fill="none" xmlns="http://www.w3.org/2000/svg">
<path d="M3.26245 79.4355V74.7437L9.3285 73.7012V30.9923L3.26245 29.9497V25.2208H16.7343L43.3057 67.483L43.5289 67.4083V30.9923L36.8676 29.9497V25.2208H56.331V29.9497L50.2649 30.9923V79.4355H43.5664L16.2877 36.9499L16.0644 37.0243V73.7012L22.7259 74.7437V79.4355H3.26245ZM61.9132 79.4355V74.7437L67.9791 73.7012V44.9182L61.9132 43.8757V39.1468H75.3105V73.7012L81.3766 74.7437V79.4355H61.9132ZM67.6072 29.205V21.3483H75.3105V29.205H67.6072ZM104.636 80.2175C100.989 80.2175 97.8133 79.3735 95.1089 77.6854C92.4048 75.9727 90.3082 73.6021 88.8198 70.5734C87.331 67.545 86.5867 64.0447 86.5867 60.0729V58.5093C86.5867 54.6863 87.3063 51.2607 88.7452 48.2323C90.1841 45.2039 92.2559 42.8084 94.96 41.0459C97.6644 39.2834 100.89 38.402 104.636 38.402C107.886 38.402 110.727 38.9358 113.158 40.0031C115.614 41.0707 117.674 42.5352 119.336 44.3971L119.522 54.0781H113.791L112.526 47.0408C111.682 46.1717 110.627 45.4768 109.362 44.9554C108.097 44.4343 106.608 44.1734 104.896 44.1734C102.713 44.1734 100.791 44.8191 99.128 46.1098C97.4907 47.4008 96.2131 49.1258 95.295 51.2855C94.3772 53.4452 93.918 55.853 93.918 58.5093V60.0729C93.918 64.4918 94.8733 68.0041 96.7838 70.6108C98.6939 73.1925 101.299 74.4832 104.599 74.4832C107.08 74.4832 109.139 73.8007 110.776 72.4353C112.414 71.07 113.419 69.1956 113.791 66.8126H120.378L120.452 67.0363C120.328 69.3446 119.646 71.5043 118.406 73.515C117.165 75.5257 115.391 77.1516 113.084 78.393C110.801 79.6093 107.985 80.2175 104.636 80.2175ZM125.253 79.4355V74.7437L131.319 73.7012V27.1198L125.253 26.0772V21.3483H138.651V44.5087C140.04 42.5723 141.739 41.0707 143.749 40.0031C145.758 38.9358 147.992 38.402 150.448 38.402C154.765 38.402 158.114 39.693 160.496 42.2746C162.878 44.8563 164.068 48.8281 164.068 54.1899V73.7012L170.134 74.7437V79.4355H150.671V74.7437L156.737 73.7012V54.1153C156.737 47.6117 153.896 44.3596 148.215 44.3596C146.205 44.3596 144.369 44.8439 142.707 45.812C141.07 46.7551 139.717 48.0461 138.651 49.6844V73.7012L144.716 74.7437V79.4355H125.253ZM192.761 80.2175C189.039 80.2175 185.827 79.3488 183.122 77.611C180.443 75.8485 178.371 73.4283 176.907 70.35C175.444 67.2472 174.712 63.7098 174.712 59.738V58.9189C174.712 54.9471 175.444 51.4221 176.907 48.3438C178.371 45.2411 180.443 42.8084 183.122 41.0459C185.827 39.2834 189.015 38.402 192.687 38.402C196.408 38.402 199.609 39.2834 202.288 41.0459C204.992 42.8084 207.076 45.2287 208.54 48.3066C210.004 51.3849 210.736 54.9223 210.736 58.9189V59.738C210.736 63.7346 210.004 67.2844 208.54 70.3872C207.076 73.4654 205.005 75.8733 202.325 77.611C199.646 79.3488 196.458 80.2175 192.761 80.2175ZM192.761 74.4832C196.234 74.4832 198.877 73.0931 200.688 70.3128C202.499 67.5326 203.405 64.0075 203.405 59.738V58.9189C203.405 56.0888 202.995 53.5694 202.177 51.3601C201.383 49.1258 200.192 47.376 198.604 46.1098C197.016 44.8191 195.044 44.1734 192.687 44.1734C190.354 44.1734 188.394 44.8191 186.807 46.1098C185.219 47.376 184.028 49.1258 183.234 51.3601C182.44 53.5694 182.043 56.0888 182.043 58.9189V59.738C182.043 64.0075 182.936 67.5326 184.723 70.3128C186.534 73.0931 189.213 74.4832 192.761 74.4832ZM215.276 79.4355V74.7437L221.342 73.7012V27.1198L215.276 26.0772V21.3483H228.673V73.7012L234.74 74.7437V79.4355H215.276ZM253.012 80.2175C248.819 80.2175 245.631 79.1997 243.448 77.1643C241.265 75.1037 240.173 72.212 240.173 68.4883C240.173 64.6656 241.736 61.5997 244.862 59.2913C247.988 56.9578 252.33 55.791 257.887 55.791H265.07V51.8441C265.07 49.4114 264.325 47.5247 262.837 46.1844C261.373 44.8439 259.301 44.1734 256.622 44.1734C254.935 44.1734 253.471 44.3847 252.231 44.8067C250.99 45.2039 249.861 45.7622 248.844 46.4822L248.062 52.1046H242.406V42.8704C246.053 39.8916 250.829 38.402 256.734 38.402C261.621 38.402 265.454 39.5687 268.233 41.9022C271.011 44.2357 272.401 47.5746 272.401 51.9184V71.3181C272.401 71.8396 272.401 72.3483 272.401 72.8449C272.426 73.3412 272.463 73.8378 272.513 74.3342L276.42 74.7437V79.4355H265.888C265.467 77.4 265.206 75.5505 265.107 73.8874C263.693 75.6995 261.919 77.2138 259.785 78.4302C257.676 79.6217 255.419 80.2175 253.012 80.2175ZM254.091 74.0736C256.522 74.0736 258.743 73.4902 260.753 72.3235C262.762 71.1567 264.201 69.7542 265.07 68.1159V60.8177H257.627C254.252 60.8177 251.722 61.6245 250.035 63.238C248.348 64.8518 247.504 66.6515 247.504 68.6374C247.504 72.2615 249.7 74.0736 254.091 74.0736ZM298.414 80.2175C295.71 80.2175 293.179 79.9445 290.822 79.3983C288.465 78.8521 285.96 78.0082 283.305 76.8662L283.231 67.2968H288.776L290.153 73.0683C292.782 74.1603 295.536 74.7065 298.414 74.7065C301.391 74.7065 303.525 74.1356 304.815 72.9939C306.105 71.8519 306.751 70.437 306.751 68.7489C306.751 67.1602 306.093 65.8196 304.778 64.7275C303.488 63.6104 301.131 62.6673 297.707 61.8977C292.844 60.7805 289.259 59.2913 286.952 57.4293C284.669 55.5429 283.528 53.0356 283.528 49.9077C283.528 47.7233 284.161 45.7745 285.426 44.0619C286.691 42.3242 288.453 40.9465 290.711 39.9287C292.968 38.911 295.598 38.402 298.6 38.402C301.652 38.402 304.257 38.7496 306.415 39.4448C308.599 40.1397 310.497 41.0707 312.109 42.2374L312.481 51.4345H306.974L305.783 46.0726C304.914 45.4273 303.885 44.9306 302.694 44.583C301.503 44.2357 300.138 44.0619 298.6 44.0619C296.318 44.0619 294.457 44.5957 293.018 45.663C291.604 46.7303 290.897 48.0709 290.897 49.6844C290.897 50.6277 291.095 51.4469 291.492 52.1421C291.914 52.837 292.708 53.4699 293.874 54.0409C295.04 54.5871 296.752 55.1333 299.01 55.6792C304.617 56.995 308.524 58.6704 310.733 60.7062C312.965 62.7416 314.082 65.249 314.082 68.2278C314.082 71.6286 312.816 74.4832 310.286 76.7919C307.78 79.0755 303.823 80.2175 298.414 80.2175Z" fill="white"/>
<path d="M167.852 174.758V170.066L171.871 169.508L190.813 120.543H197.103L215.71 169.508L219.692 170.066V174.758H204.136V170.066L208.23 169.359L204.657 159.38H182.961L179.277 169.359L183.37 170.066V174.758H167.852ZM185.231 153.236H202.424L194.46 131.193L194.014 129.964H193.79L193.344 131.193L185.231 153.236ZM239.788 175.54C236.513 175.54 233.697 174.733 231.341 173.12C229.008 171.482 227.222 169.21 225.982 166.306C224.741 163.401 224.121 160.013 224.121 156.14V155.358C224.121 151.039 224.741 147.254 225.982 144.002C227.222 140.75 229.021 138.23 231.378 136.443C233.735 134.631 236.563 133.725 239.862 133.725C242.244 133.725 244.341 134.172 246.152 135.065C247.988 135.934 249.551 137.2 250.841 138.863V122.443L244.775 121.4V116.671H258.172V169.024L264.238 170.066V174.758H251.809L251.213 169.955C248.534 173.678 244.725 175.54 239.788 175.54ZM241.649 169.582C243.832 169.582 245.668 169.086 247.157 168.093C248.645 167.1 249.873 165.697 250.841 163.885V145.193C249.898 143.505 248.67 142.165 247.157 141.172C245.643 140.179 243.832 139.682 241.723 139.682C238.225 139.682 235.632 141.135 233.946 144.039C232.283 146.943 231.452 150.716 231.452 155.358V156.14C231.452 160.187 232.283 163.439 233.946 165.896C235.608 168.354 238.176 169.582 241.649 169.582ZM282.325 175.54C278.132 175.54 274.944 174.522 272.761 172.487C270.577 170.426 269.486 167.535 269.486 163.811C269.486 159.988 271.049 156.922 274.175 154.614C277.301 152.28 281.643 151.114 287.2 151.114H294.382V147.167C294.382 144.734 293.638 142.847 292.15 141.507C290.686 140.166 288.614 139.496 285.935 139.496C284.248 139.496 282.784 139.707 281.543 140.129C280.303 140.526 279.174 141.085 278.157 141.805L277.375 147.427H271.719V138.193C275.366 135.214 280.141 133.725 286.046 133.725C290.934 133.725 294.767 134.891 297.546 137.225C300.324 139.558 301.714 142.897 301.714 147.241V166.641C301.714 167.162 301.714 167.671 301.714 168.167C301.739 168.664 301.776 169.16 301.826 169.657L305.733 170.066V174.758H295.201C294.779 172.723 294.519 170.873 294.42 169.21C293.006 171.022 291.232 172.536 289.098 173.753C286.989 174.944 284.732 175.54 282.325 175.54ZM283.404 169.396C285.835 169.396 288.056 168.813 290.065 167.646C292.075 166.479 293.514 165.077 294.382 163.439V156.14H286.94C283.565 156.14 281.035 156.947 279.348 158.561C277.661 160.174 276.817 161.974 276.817 163.96C276.817 167.584 279.013 169.396 283.404 169.396ZM311.427 174.758V170.066L317.493 169.024V140.241L311.427 139.198V134.469H324.081L324.563 139.72C325.853 137.808 327.517 136.331 329.549 135.288C331.585 134.246 333.941 133.725 336.622 133.725C339.302 133.725 341.595 134.345 343.506 135.587C345.44 136.828 346.892 138.689 347.86 141.172C349.127 138.888 350.801 137.076 352.884 135.736C354.967 134.395 357.4 133.725 360.179 133.725C364.298 133.725 367.546 135.139 369.928 137.97C372.31 140.775 373.501 145.007 373.501 150.667V169.024L379.566 170.066V174.758H360.068V170.066L366.133 169.024V150.592C366.133 146.62 365.45 143.815 364.085 142.177C362.722 140.514 360.699 139.682 358.019 139.682C355.466 139.682 353.405 140.588 351.843 142.401C350.305 144.188 349.41 146.447 349.162 149.177V169.024L355.228 170.066V174.758H335.764V170.066L341.833 169.024V150.592C341.833 146.819 341.125 144.064 339.711 142.326C338.32 140.564 336.298 139.682 333.643 139.682C331.41 139.682 329.575 140.142 328.136 141.06C326.698 141.979 325.592 143.269 324.824 144.933V169.024L330.889 170.066V174.758H311.427ZM402.641 175.54C398.919 175.54 395.705 174.671 393.002 172.934C390.322 171.171 388.252 168.751 386.788 165.673C385.324 162.57 384.59 159.032 384.59 155.061V154.241C384.59 150.27 385.324 146.745 386.788 143.666C388.252 140.564 390.322 138.131 393.002 136.369C395.705 134.606 398.893 133.725 402.568 133.725C406.289 133.725 409.487 134.606 412.168 136.369C414.873 138.131 416.957 140.551 418.421 143.629C419.885 146.708 420.615 150.245 420.615 154.241V155.061C420.615 159.057 419.885 162.607 418.421 165.71C416.957 168.788 414.886 171.196 412.206 172.934C409.525 174.671 406.337 175.54 402.641 175.54ZM402.641 169.806C406.115 169.806 408.757 168.416 410.567 165.635C412.377 162.855 413.286 159.33 413.286 155.061V154.241C413.286 151.411 412.876 148.892 412.056 146.683C411.263 144.448 410.072 142.699 408.484 141.432C406.896 140.142 404.924 139.496 402.568 139.496C400.233 139.496 398.274 140.142 396.686 141.432C395.098 142.699 393.908 144.448 393.114 146.683C392.32 148.892 391.923 151.411 391.923 154.241V155.061C391.923 159.33 392.815 162.855 394.603 165.635C396.413 168.416 399.093 169.806 402.641 169.806ZM443.988 175.54C439.621 175.54 436.208 174.138 433.753 171.333C431.295 168.527 430.069 164.159 430.069 158.226V140.241L425.455 139.198V134.469H437.398V158.3C437.398 162.595 438.034 165.549 439.297 167.162C440.561 168.776 442.537 169.582 445.214 169.582C447.821 169.582 449.965 169.061 451.654 168.018C453.366 166.951 454.655 165.449 455.522 163.513V140.241L450.127 139.198V134.469H462.855V169.024L467.469 170.066V174.758H456.268L455.782 168.8C454.518 170.96 452.88 172.623 450.873 173.79C448.888 174.957 446.592 175.54 443.988 175.54Z" fill="white"/>
</svg>
