<svg width="148" height="62" viewBox="0 0 148 62" fill="none" xmlns="http://www.w3.org/2000/svg">
<path d="M1.02734 25V23.5234L2.9375 23.1953V9.75391L1.02734 9.42578V7.9375H5.26953L13.6367 21.2383L13.707 21.2148V9.75391L11.6094 9.42578V7.9375H17.7383V9.42578L15.8281 9.75391V25H13.7188L5.12891 11.6289L5.05859 11.6523V23.1953L7.15625 23.5234V25H1.02734ZM19.4961 25V23.5234L21.4062 23.1953V14.1367L19.4961 13.8086V12.3203H23.7148V23.1953L25.625 23.5234V25H19.4961ZM21.2891 9.19141V6.71875H23.7148V9.19141H21.2891ZM32.9492 25.2461C31.8008 25.2461 30.8008 24.9805 29.9492 24.4492C29.0977 23.9102 28.4375 23.1641 27.9688 22.2109C27.5 21.2578 27.2656 20.1562 27.2656 18.9062V18.4141C27.2656 17.2109 27.4922 16.1328 27.9453 15.1797C28.3984 14.2266 29.0508 13.4727 29.9023 12.918C30.7539 12.3633 31.7695 12.0859 32.9492 12.0859C33.9727 12.0859 34.8672 12.2539 35.6328 12.5898C36.4062 12.9258 37.0547 13.3867 37.5781 13.9727L37.6367 17.0195H35.832L35.4336 14.8047C35.168 14.5312 34.8359 14.3125 34.4375 14.1484C34.0391 13.9844 33.5703 13.9023 33.0312 13.9023C32.3438 13.9023 31.7383 14.1055 31.2148 14.5117C30.6992 14.918 30.2969 15.4609 30.0078 16.1406C29.7188 16.8203 29.5742 17.5781 29.5742 18.4141V18.9062C29.5742 20.2969 29.875 21.4023 30.4766 22.2227C31.0781 23.0352 31.8984 23.4414 32.9375 23.4414C33.7188 23.4414 34.3672 23.2266 34.8828 22.7969C35.3984 22.3672 35.7148 21.7773 35.832 21.0273H37.9062L37.9297 21.0977C37.8906 21.8242 37.6758 22.5039 37.2852 23.1367C36.8945 23.7695 36.3359 24.2812 35.6094 24.6719C34.8906 25.0547 34.0039 25.2461 32.9492 25.2461ZM39.4414 25V23.5234L41.3516 23.1953V8.53516L39.4414 8.20703V6.71875H43.6602V14.0078C44.0977 13.3984 44.6328 12.9258 45.2656 12.5898C45.8984 12.2539 46.6016 12.0859 47.375 12.0859C48.7344 12.0859 49.7891 12.4922 50.5391 13.3047C51.2891 14.1172 51.6641 15.3672 51.6641 17.0547V23.1953L53.5742 23.5234V25H47.4453V23.5234L49.3555 23.1953V17.0312C49.3555 14.9844 48.4609 13.9609 46.6719 13.9609C46.0391 13.9609 45.4609 14.1133 44.9375 14.418C44.4219 14.7148 43.9961 15.1211 43.6602 15.6367V23.1953L45.5703 23.5234V25H39.4414ZM60.6992 25.2461C59.5273 25.2461 58.5156 24.9727 57.6641 24.4258C56.8203 23.8711 56.168 23.1094 55.707 22.1406C55.2461 21.1641 55.0156 20.0508 55.0156 18.8008V18.543C55.0156 17.293 55.2461 16.1836 55.707 15.2148C56.168 14.2383 56.8203 13.4727 57.6641 12.918C58.5156 12.3633 59.5195 12.0859 60.6758 12.0859C61.8477 12.0859 62.8555 12.3633 63.6992 12.918C64.5508 13.4727 65.207 14.2344 65.668 15.2031C66.1289 16.1719 66.3594 17.2852 66.3594 18.543V18.8008C66.3594 20.0586 66.1289 21.1758 65.668 22.1523C65.207 23.1211 64.5547 23.8789 63.7109 24.4258C62.8672 24.9727 61.8633 25.2461 60.6992 25.2461ZM60.6992 23.4414C61.793 23.4414 62.625 23.0039 63.1953 22.1289C63.7656 21.2539 64.0508 20.1445 64.0508 18.8008V18.543C64.0508 17.6523 63.9219 16.8594 63.6641 16.1641C63.4141 15.4609 63.0391 14.9102 62.5391 14.5117C62.0391 14.1055 61.418 13.9023 60.6758 13.9023C59.9414 13.9023 59.3242 14.1055 58.8242 14.5117C58.3242 14.9102 57.9492 15.4609 57.6992 16.1641C57.4492 16.8594 57.3242 17.6523 57.3242 18.543V18.8008C57.3242 20.1445 57.6055 21.2539 58.168 22.1289C58.7383 23.0039 59.582 23.4414 60.6992 23.4414ZM67.7891 25V23.5234L69.6992 23.1953V8.53516L67.7891 8.20703V6.71875H72.0078V23.1953L73.918 23.5234V25H67.7891ZM79.6719 25.2461C78.3516 25.2461 77.3477 24.9258 76.6602 24.2852C75.9727 23.6367 75.6289 22.7266 75.6289 21.5547C75.6289 20.3516 76.1211 19.3867 77.1055 18.6602C78.0898 17.9258 79.457 17.5586 81.207 17.5586H83.4688V16.3164C83.4688 15.5508 83.2344 14.957 82.7656 14.5352C82.3047 14.1133 81.6523 13.9023 80.8086 13.9023C80.2773 13.9023 79.8164 13.9688 79.4258 14.1016C79.0352 14.2266 78.6797 14.4023 78.3594 14.6289L78.1133 16.3984H76.332V13.4922C77.4805 12.5547 78.9844 12.0859 80.8438 12.0859C82.3828 12.0859 83.5898 12.4531 84.4648 13.1875C85.3398 13.9219 85.7773 14.9727 85.7773 16.3398V22.4453C85.7773 22.6094 85.7773 22.7695 85.7773 22.9258C85.7852 23.082 85.7969 23.2383 85.8125 23.3945L87.043 23.5234V25H83.7266C83.5938 24.3594 83.5117 23.7773 83.4805 23.2539C83.0352 23.8242 82.4766 24.3008 81.8047 24.6836C81.1406 25.0586 80.4297 25.2461 79.6719 25.2461ZM80.0117 23.3125C80.7773 23.3125 81.4766 23.1289 82.1094 22.7617C82.7422 22.3945 83.1953 21.9531 83.4688 21.4375V19.1406H81.125C80.0625 19.1406 79.2656 19.3945 78.7344 19.9023C78.2031 20.4102 77.9375 20.9766 77.9375 21.6016C77.9375 22.7422 78.6289 23.3125 80.0117 23.3125ZM93.9688 25.2461C93.1172 25.2461 92.3203 25.1602 91.5781 24.9883C90.8359 24.8164 90.0469 24.5508 89.2109 24.1914L89.1875 21.1797H90.9336L91.3672 22.9961C92.1953 23.3398 93.0625 23.5117 93.9688 23.5117C94.9062 23.5117 95.5781 23.332 95.9844 22.9727C96.3906 22.6133 96.5938 22.168 96.5938 21.6367C96.5938 21.1367 96.3867 20.7148 95.9727 20.3711C95.5664 20.0195 94.8242 19.7227 93.7461 19.4805C92.2148 19.1289 91.0859 18.6602 90.3594 18.0742C89.6406 17.4805 89.2812 16.6914 89.2812 15.707C89.2812 15.0195 89.4805 14.4062 89.8789 13.8672C90.2773 13.3203 90.832 12.8867 91.543 12.5664C92.2539 12.2461 93.082 12.0859 94.0273 12.0859C94.9883 12.0859 95.8086 12.1953 96.4883 12.4141C97.1758 12.6328 97.7734 12.9258 98.2812 13.293L98.3984 16.1875H96.6641L96.2891 14.5C96.0156 14.2969 95.6914 14.1406 95.3164 14.0312C94.9414 13.9219 94.5117 13.8672 94.0273 13.8672C93.3086 13.8672 92.7227 14.0352 92.2695 14.3711C91.8242 14.707 91.6016 15.1289 91.6016 15.6367C91.6016 15.9336 91.6641 16.1914 91.7891 16.4102C91.9219 16.6289 92.1719 16.8281 92.5391 17.0078C92.9062 17.1797 93.4453 17.3516 94.1562 17.5234C95.9219 17.9375 97.1523 18.4648 97.8477 19.1055C98.5508 19.7461 98.9023 20.5352 98.9023 21.4727C98.9023 22.543 98.5039 23.4414 97.707 24.168C96.918 24.8867 95.6719 25.2461 93.9688 25.2461Z" fill="white"/>
<path d="M52.8555 55V53.5234L54.1211 53.3477L60.0859 37.9375H62.0664L67.9258 53.3477L69.1797 53.5234V55H64.2812V53.5234L65.5703 53.3008L64.4453 50.1602H57.6133L56.4531 53.3008L57.7422 53.5234V55H52.8555ZM58.3281 48.2266H63.7422L61.2344 41.2891L61.0938 40.9023H61.0234L60.8828 41.2891L58.3281 48.2266ZM75.5078 55.2461C74.4766 55.2461 73.5898 54.9922 72.8477 54.4844C72.1133 53.9688 71.5508 53.2539 71.1602 52.3398C70.7695 51.4258 70.5742 50.3594 70.5742 49.1406V48.8945C70.5742 47.5352 70.7695 46.3438 71.1602 45.3203C71.5508 44.2969 72.1172 43.5039 72.8594 42.9414C73.6016 42.3711 74.4922 42.0859 75.5312 42.0859C76.2812 42.0859 76.9414 42.2266 77.5117 42.5078C78.0898 42.7812 78.582 43.1797 78.9883 43.7031V38.5352L77.0781 38.207V36.7188H81.2969V53.1953L83.207 53.5234V55H79.293L79.1055 53.4883C78.2617 54.6602 77.0625 55.2461 75.5078 55.2461ZM76.0938 53.3711C76.7812 53.3711 77.3594 53.2148 77.8281 52.9023C78.2969 52.5898 78.6836 52.1484 78.9883 51.5781V45.6953C78.6914 45.1641 78.3047 44.7422 77.8281 44.4297C77.3516 44.1172 76.7812 43.9609 76.1172 43.9609C75.0156 43.9609 74.1992 44.418 73.668 45.332C73.1445 46.2461 72.8828 47.4336 72.8828 48.8945V49.1406C72.8828 50.4141 73.1445 51.4375 73.668 52.2109C74.1914 52.9844 75 53.3711 76.0938 53.3711ZM88.9023 55.2461C87.582 55.2461 86.5781 54.9258 85.8906 54.2852C85.2031 53.6367 84.8594 52.7266 84.8594 51.5547C84.8594 50.3516 85.3516 49.3867 86.3359 48.6602C87.3203 47.9258 88.6875 47.5586 90.4375 47.5586H92.6992V46.3164C92.6992 45.5508 92.4648 44.957 91.9961 44.5352C91.5352 44.1133 90.8828 43.9023 90.0391 43.9023C89.5078 43.9023 89.0469 43.9688 88.6562 44.1016C88.2656 44.2266 87.9102 44.4023 87.5898 44.6289L87.3438 46.3984H85.5625V43.4922C86.7109 42.5547 88.2148 42.0859 90.0742 42.0859C91.6133 42.0859 92.8203 42.4531 93.6953 43.1875C94.5703 43.9219 95.0078 44.9727 95.0078 46.3398V52.4453C95.0078 52.6094 95.0078 52.7695 95.0078 52.9258C95.0156 53.082 95.0273 53.2383 95.043 53.3945L96.2734 53.5234V55H92.957C92.8242 54.3594 92.7422 53.7773 92.7109 53.2539C92.2656 53.8242 91.707 54.3008 91.0352 54.6836C90.3711 55.0586 89.6602 55.2461 88.9023 55.2461ZM89.2422 53.3125C90.0078 53.3125 90.707 53.1289 91.3398 52.7617C91.9727 52.3945 92.4258 51.9531 92.6992 51.4375V49.1406H90.3555C89.293 49.1406 88.4961 49.3945 87.9648 49.9023C87.4336 50.4102 87.168 50.9766 87.168 51.6016C87.168 52.7422 87.8594 53.3125 89.2422 53.3125ZM98.0664 55V53.5234L99.9766 53.1953V44.1367L98.0664 43.8086V42.3203H102.051L102.203 43.9727C102.609 43.3711 103.133 42.9062 103.773 42.5781C104.414 42.25 105.156 42.0859 106 42.0859C106.844 42.0859 107.566 42.2812 108.168 42.6719C108.777 43.0625 109.234 43.6484 109.539 44.4297C109.938 43.7109 110.465 43.1406 111.121 42.7188C111.777 42.2969 112.543 42.0859 113.418 42.0859C114.715 42.0859 115.738 42.5312 116.488 43.4219C117.238 44.3047 117.613 45.6367 117.613 47.418V53.1953L119.523 53.5234V55H113.383V53.5234L115.293 53.1953V47.3945C115.293 46.1445 115.078 45.2617 114.648 44.7461C114.219 44.2227 113.582 43.9609 112.738 43.9609C111.934 43.9609 111.285 44.2461 110.793 44.8164C110.309 45.3789 110.027 46.0898 109.949 46.9492V53.1953L111.859 53.5234V55H105.73V53.5234L107.641 53.1953V47.3945C107.641 46.207 107.418 45.3398 106.973 44.793C106.535 44.2383 105.898 43.9609 105.062 43.9609C104.359 43.9609 103.781 44.1055 103.328 44.3945C102.875 44.6836 102.527 45.0898 102.285 45.6133V53.1953L104.195 53.5234V55H98.0664ZM126.789 55.2461C125.617 55.2461 124.605 54.9727 123.754 54.4258C122.91 53.8711 122.258 53.1094 121.797 52.1406C121.336 51.1641 121.105 50.0508 121.105 48.8008V48.543C121.105 47.293 121.336 46.1836 121.797 45.2148C122.258 44.2383 122.91 43.4727 123.754 42.918C124.605 42.3633 125.609 42.0859 126.766 42.0859C127.938 42.0859 128.945 42.3633 129.789 42.918C130.641 43.4727 131.297 44.2344 131.758 45.2031C132.219 46.1719 132.449 47.2852 132.449 48.543V48.8008C132.449 50.0586 132.219 51.1758 131.758 52.1523C131.297 53.1211 130.645 53.8789 129.801 54.4258C128.957 54.9727 127.953 55.2461 126.789 55.2461ZM126.789 53.4414C127.883 53.4414 128.715 53.0039 129.285 52.1289C129.855 51.2539 130.141 50.1445 130.141 48.8008V48.543C130.141 47.6523 130.012 46.8594 129.754 46.1641C129.504 45.4609 129.129 44.9102 128.629 44.5117C128.129 44.1055 127.508 43.9023 126.766 43.9023C126.031 43.9023 125.414 44.1055 124.914 44.5117C124.414 44.9102 124.039 45.4609 123.789 46.1641C123.539 46.8594 123.414 47.6523 123.414 48.543V48.8008C123.414 50.1445 123.695 51.2539 124.258 52.1289C124.828 53.0039 125.672 53.4414 126.789 53.4414ZM139.809 55.2461C138.434 55.2461 137.359 54.8047 136.586 53.9219C135.812 53.0391 135.426 51.6641 135.426 49.7969V44.1367L133.973 43.8086V42.3203H137.734V49.8203C137.734 51.1719 137.934 52.1016 138.332 52.6094C138.73 53.1172 139.352 53.3711 140.195 53.3711C141.016 53.3711 141.691 53.207 142.223 52.8789C142.762 52.543 143.168 52.0703 143.441 51.4609V44.1367L141.742 43.8086V42.3203H145.75V53.1953L147.203 53.5234V55H143.676L143.523 53.125C143.125 53.8047 142.609 54.3281 141.977 54.6953C141.352 55.0625 140.629 55.2461 139.809 55.2461Z" fill="white"/>
</svg>
