<svg width="1440" height="320" viewBox="0 0 1440 320" fill="none" xmlns="http://www.w3.org/2000/svg">
<g clip-path="url(#clip0)">
<path d="M0 192L48 197.3C96 203 192 213 288 224C384 235 480 245 576 250.7C672 256 768 256 864 234.7C960 213 1056 171 1152 149.3C1248 128 1344 128 1392 128H1440V320H1392C1344 320 1248 320 1152 320C1056 320 960 320 864 320C768 320 672 320 576 320C480 320 384 320 288 320C192 320 96 320 48 320H0L0 192Z" fill="white"/>
</g>
<defs>
<clipPath id="clip0">
<rect width="1440" height="320" fill="white"/>
</clipPath>
</defs>
</svg>
